<svg xmlns="http://www.w3.org/2000/svg" version="1.1" xmlns:xlink="http://www.w3.org/1999/xlink" xmlns:svgjs="http://svgjs.dev/svgjs" viewBox="0 0 800 800" opacity="0.21" width="800" height="800"><g stroke-width="2.25" stroke="hsl(261, 60%, 38%)" fill="none"><rect width="10.526315789473685" height="10.526315789473685" x="-5.2631578947368425" y="-5.2631578947368425" fill="hsl(261, 60%, 38%)" stroke="none"></rect><rect width="10.526315789473685" height="10.526315789473685" x="39.1812865497076" y="-5.2631578947368425" fill="hsl(261, 60%, 38%)" stroke="none"></rect><rect width="10.526315789473685" height="10.526315789473685" x="83.62573099415204" y="-5.2631578947368425" fill="hsl(261, 60%, 38%)" stroke="none"></rect><rect width="10.526315789473685" height="10.526315789473685" x="128.07017543859646" y="-5.2631578947368425" fill="hsl(261, 60%, 38%)" stroke="none"></rect><rect width="10.526315789473685" height="10.526315789473685" x="172.51461988304092" y="-5.2631578947368425" fill="hsl(261, 60%, 38%)" stroke="none"></rect><rect width="10.526315789473685" height="10.526315789473685" x="216.95906432748538" y="-5.2631578947368425" fill="hsl(261, 60%, 38%)" stroke="none"></rect><rect width="10.526315789473685" height="10.526315789473685" x="261.40350877192986" y="-5.2631578947368425" fill="hsl(261, 60%, 38%)" stroke="none"></rect><rect width="10.526315789473685" height="10.526315789473685" x="305.8479532163743" y="-5.2631578947368425" fill="hsl(261, 60%, 38%)" stroke="none"></rect><rect width="10.526315789473685" height="10.526315789473685" x="350.2923976608188" y="-5.2631578947368425" fill="hsl(261, 60%, 38%)" stroke="none"></rect><rect width="10.526315789473685" height="10.526315789473685" x="394.73684210526324" y="-5.2631578947368425" fill="hsl(261, 60%, 38%)" stroke="none"></rect><rect width="10.526315789473685" height="10.526315789473685" x="439.1812865497077" y="-5.2631578947368425" fill="hsl(261, 60%, 38%)" stroke="none"></rect><rect width="10.526315789473685" height="10.526315789473685" x="483.62573099415215" y="-5.2631578947368425" fill="hsl(261, 60%, 38%)" stroke="none"></rect><rect width="10.526315789473685" height="10.526315789473685" x="528.0701754385965" y="-5.2631578947368425" fill="hsl(261, 60%, 38%)" stroke="none"></rect><rect width="10.526315789473685" height="10.526315789473685" x="572.514619883041" y="-5.2631578947368425" fill="hsl(261, 60%, 38%)" stroke="none"></rect><rect width="10.526315789473685" height="10.526315789473685" x="616.9590643274854" y="-5.2631578947368425" fill="hsl(261, 60%, 38%)" stroke="none"></rect><rect width="10.526315789473685" height="10.526315789473685" x="661.4035087719299" y="-5.2631578947368425" fill="hsl(261, 60%, 38%)" stroke="none"></rect><rect width="10.526315789473685" height="10.526315789473685" x="705.8479532163743" y="-5.2631578947368425" fill="hsl(261, 60%, 38%)" stroke="none"></rect><rect width="10.526315789473685" height="10.526315789473685" x="750.2923976608188" y="-5.2631578947368425" fill="hsl(261, 60%, 38%)" stroke="none"></rect><rect width="10.526315789473685" height="10.526315789473685" x="794.7368421052632" y="-5.2631578947368425" fill="hsl(261, 60%, 38%)" stroke="none"></rect><rect width="10.526315789473685" height="10.526315789473685" x="-5.2631578947368425" y="39.1812865497076" fill="hsl(261, 60%, 38%)" stroke="none"></rect><rect width="10.526315789473685" height="10.526315789473685" x="39.1812865497076" y="39.1812865497076" fill="hsl(261, 60%, 38%)" stroke="none"></rect><rect width="10.526315789473685" height="10.526315789473685" x="83.62573099415204" y="39.1812865497076" fill="hsl(261, 60%, 38%)" stroke="none"></rect><rect width="10.526315789473685" height="10.526315789473685" x="128.07017543859646" y="39.1812865497076" fill="hsl(261, 60%, 38%)" stroke="none"></rect><rect width="10.526315789473685" height="10.526315789473685" x="172.51461988304092" y="39.1812865497076" fill="hsl(261, 60%, 38%)" stroke="none"></rect><rect width="10.526315789473685" height="10.526315789473685" x="216.95906432748538" y="39.1812865497076" fill="hsl(261, 60%, 38%)" stroke="none"></rect><rect width="10.526315789473685" height="10.526315789473685" x="261.40350877192986" y="39.1812865497076" fill="hsl(261, 60%, 38%)" stroke="none"></rect><rect width="10.526315789473685" height="10.526315789473685" x="305.8479532163743" y="39.1812865497076" fill="hsl(261, 60%, 38%)" stroke="none"></rect><rect width="10.526315789473685" height="10.526315789473685" x="350.2923976608188" y="39.1812865497076" fill="hsl(261, 60%, 38%)" stroke="none"></rect><rect width="10.526315789473685" height="10.526315789473685" x="394.73684210526324" y="39.1812865497076" fill="hsl(261, 60%, 38%)" stroke="none"></rect><rect width="10.526315789473685" height="10.526315789473685" x="439.1812865497077" y="39.1812865497076" fill="hsl(261, 60%, 38%)" stroke="none"></rect><rect width="10.526315789473685" height="10.526315789473685" x="483.62573099415215" y="39.1812865497076" fill="hsl(261, 60%, 38%)" stroke="none"></rect><rect width="10.526315789473685" height="10.526315789473685" x="528.0701754385965" y="39.1812865497076" fill="hsl(261, 60%, 38%)" stroke="none"></rect><rect width="10.526315789473685" height="10.526315789473685" x="572.514619883041" y="39.1812865497076" fill="hsl(261, 60%, 38%)" stroke="none"></rect><rect width="10.526315789473685" height="10.526315789473685" x="616.9590643274854" y="39.1812865497076" fill="hsl(261, 60%, 38%)" stroke="none"></rect><rect width="10.526315789473685" height="10.526315789473685" x="661.4035087719299" y="39.1812865497076" fill="hsl(261, 60%, 38%)" stroke="none"></rect><rect width="10.526315789473685" height="10.526315789473685" x="705.8479532163743" y="39.1812865497076" fill="hsl(261, 60%, 38%)" stroke="none"></rect><rect width="10.526315789473685" height="10.526315789473685" x="750.2923976608188" y="39.1812865497076" fill="hsl(261, 60%, 38%)" stroke="none"></rect><rect width="10.526315789473685" height="10.526315789473685" x="794.7368421052632" y="39.1812865497076" fill="hsl(261, 60%, 38%)" stroke="none"></rect><rect width="10.526315789473685" height="10.526315789473685" x="-5.2631578947368425" y="83.62573099415204" fill="hsl(261, 60%, 38%)" stroke="none"></rect><rect width="10.526315789473685" height="10.526315789473685" x="39.1812865497076" y="83.62573099415204" fill="hsl(261, 60%, 38%)" stroke="none"></rect><rect width="10.526315789473685" height="10.526315789473685" x="83.62573099415204" y="83.62573099415204" fill="hsl(261, 60%, 38%)" stroke="none"></rect><rect width="10.526315789473685" height="10.526315789473685" x="128.07017543859646" y="83.62573099415204" fill="hsl(261, 60%, 38%)" stroke="none"></rect><rect width="10.526315789473685" height="10.526315789473685" x="172.51461988304092" y="83.62573099415204" fill="hsl(261, 60%, 38%)" stroke="none"></rect><rect width="10.526315789473685" height="10.526315789473685" x="216.95906432748538" y="83.62573099415204" fill="hsl(261, 60%, 38%)" stroke="none"></rect><rect width="10.526315789473685" height="10.526315789473685" x="261.40350877192986" y="83.62573099415204" fill="hsl(261, 60%, 38%)" stroke="none"></rect><rect width="10.526315789473685" height="10.526315789473685" x="305.8479532163743" y="83.62573099415204" fill="hsl(261, 60%, 38%)" stroke="none"></rect><rect width="10.526315789473685" height="10.526315789473685" x="350.2923976608188" y="83.62573099415204" fill="hsl(261, 60%, 38%)" stroke="none"></rect><rect width="10.526315789473685" height="10.526315789473685" x="394.73684210526324" y="83.62573099415204" fill="hsl(261, 60%, 38%)" stroke="none"></rect><rect width="10.526315789473685" height="10.526315789473685" x="439.1812865497077" y="83.62573099415204" fill="hsl(261, 60%, 38%)" stroke="none"></rect><rect width="10.526315789473685" height="10.526315789473685" x="483.62573099415215" y="83.62573099415204" fill="hsl(261, 60%, 38%)" stroke="none"></rect><rect width="10.526315789473685" height="10.526315789473685" x="528.0701754385965" y="83.62573099415204" fill="hsl(261, 60%, 38%)" stroke="none"></rect><rect width="10.526315789473685" height="10.526315789473685" x="572.514619883041" y="83.62573099415204" fill="hsl(261, 60%, 38%)" stroke="none"></rect><rect width="10.526315789473685" height="10.526315789473685" x="616.9590643274854" y="83.62573099415204" fill="hsl(261, 60%, 38%)" stroke="none"></rect><rect width="10.526315789473685" height="10.526315789473685" x="661.4035087719299" y="83.62573099415204" fill="hsl(261, 60%, 38%)" stroke="none"></rect><rect width="10.526315789473685" height="10.526315789473685" x="705.8479532163743" y="83.62573099415204" fill="hsl(261, 60%, 38%)" stroke="none"></rect><rect width="10.526315789473685" height="10.526315789473685" x="750.2923976608188" y="83.62573099415204" fill="hsl(261, 60%, 38%)" stroke="none"></rect><rect width="10.526315789473685" height="10.526315789473685" x="794.7368421052632" y="83.62573099415204" fill="hsl(261, 60%, 38%)" stroke="none"></rect><rect width="10.526315789473685" height="10.526315789473685" x="-5.2631578947368425" y="128.07017543859646" fill="hsl(261, 60%, 38%)" stroke="none"></rect><rect width="10.526315789473685" height="10.526315789473685" x="39.1812865497076" y="128.07017543859646" fill="hsl(261, 60%, 38%)" stroke="none"></rect><rect width="10.526315789473685" height="10.526315789473685" x="83.62573099415204" y="128.07017543859646" fill="hsl(261, 60%, 38%)" stroke="none"></rect><rect width="10.526315789473685" height="10.526315789473685" x="128.07017543859646" y="128.07017543859646" fill="hsl(261, 60%, 38%)" stroke="none"></rect><rect width="10.526315789473685" height="10.526315789473685" x="172.51461988304092" y="128.07017543859646" fill="hsl(261, 60%, 38%)" stroke="none"></rect><rect width="10.526315789473685" height="10.526315789473685" x="216.95906432748538" y="128.07017543859646" fill="hsl(261, 60%, 38%)" stroke="none"></rect><rect width="10.526315789473685" height="10.526315789473685" x="261.40350877192986" y="128.07017543859646" fill="hsl(261, 60%, 38%)" stroke="none"></rect><rect width="10.526315789473685" height="10.526315789473685" x="305.8479532163743" y="128.07017543859646" fill="hsl(261, 60%, 38%)" stroke="none"></rect><rect width="10.526315789473685" height="10.526315789473685" x="350.2923976608188" y="128.07017543859646" fill="hsl(261, 60%, 38%)" stroke="none"></rect><rect width="10.526315789473685" height="10.526315789473685" x="394.73684210526324" y="128.07017543859646" fill="hsl(261, 60%, 38%)" stroke="none"></rect><rect width="10.526315789473685" height="10.526315789473685" x="439.1812865497077" y="128.07017543859646" fill="hsl(261, 60%, 38%)" stroke="none"></rect><rect width="10.526315789473685" height="10.526315789473685" x="483.62573099415215" y="128.07017543859646" fill="hsl(261, 60%, 38%)" stroke="none"></rect><rect width="10.526315789473685" height="10.526315789473685" x="528.0701754385965" y="128.07017543859646" fill="hsl(261, 60%, 38%)" stroke="none"></rect><rect width="10.526315789473685" height="10.526315789473685" x="572.514619883041" y="128.07017543859646" fill="hsl(261, 60%, 38%)" stroke="none"></rect><rect width="10.526315789473685" height="10.526315789473685" x="616.9590643274854" y="128.07017543859646" fill="hsl(261, 60%, 38%)" stroke="none"></rect><rect width="10.526315789473685" height="10.526315789473685" x="661.4035087719299" y="128.07017543859646" fill="hsl(261, 60%, 38%)" stroke="none"></rect><rect width="10.526315789473685" height="10.526315789473685" x="705.8479532163743" y="128.07017543859646" fill="hsl(261, 60%, 38%)" stroke="none"></rect><rect width="10.526315789473685" height="10.526315789473685" x="750.2923976608188" y="128.07017543859646" fill="hsl(261, 60%, 38%)" stroke="none"></rect><rect width="10.526315789473685" height="10.526315789473685" x="794.7368421052632" y="128.07017543859646" fill="hsl(261, 60%, 38%)" stroke="none"></rect><rect width="10.526315789473685" height="10.526315789473685" x="-5.2631578947368425" y="172.51461988304092" fill="hsl(261, 60%, 38%)" stroke="none"></rect><rect width="10.526315789473685" height="10.526315789473685" x="39.1812865497076" y="172.51461988304092" fill="hsl(261, 60%, 38%)" stroke="none"></rect><rect width="10.526315789473685" height="10.526315789473685" x="83.62573099415204" y="172.51461988304092" fill="hsl(261, 60%, 38%)" stroke="none"></rect><rect width="10.526315789473685" height="10.526315789473685" x="128.07017543859646" y="172.51461988304092" fill="hsl(261, 60%, 38%)" stroke="none"></rect><rect width="10.526315789473685" height="10.526315789473685" x="172.51461988304092" y="172.51461988304092" fill="hsl(261, 60%, 38%)" stroke="none"></rect><rect width="10.526315789473685" height="10.526315789473685" x="216.95906432748538" y="172.51461988304092" fill="hsl(261, 60%, 38%)" stroke="none"></rect><rect width="10.526315789473685" height="10.526315789473685" x="261.40350877192986" y="172.51461988304092" fill="hsl(261, 60%, 38%)" stroke="none"></rect><rect width="10.526315789473685" height="10.526315789473685" x="305.8479532163743" y="172.51461988304092" fill="hsl(261, 60%, 38%)" stroke="none"></rect><rect width="10.526315789473685" height="10.526315789473685" x="350.2923976608188" y="172.51461988304092" fill="hsl(261, 60%, 38%)" stroke="none"></rect><rect width="10.526315789473685" height="10.526315789473685" x="394.73684210526324" y="172.51461988304092" fill="hsl(261, 60%, 38%)" stroke="none"></rect><rect width="10.526315789473685" height="10.526315789473685" x="439.1812865497077" y="172.51461988304092" fill="hsl(261, 60%, 38%)" stroke="none"></rect><rect width="10.526315789473685" height="10.526315789473685" x="483.62573099415215" y="172.51461988304092" fill="hsl(261, 60%, 38%)" stroke="none"></rect><rect width="10.526315789473685" height="10.526315789473685" x="528.0701754385965" y="172.51461988304092" fill="hsl(261, 60%, 38%)" stroke="none"></rect><rect width="10.526315789473685" height="10.526315789473685" x="572.514619883041" y="172.51461988304092" fill="hsl(261, 60%, 38%)" stroke="none"></rect><rect width="10.526315789473685" height="10.526315789473685" x="616.9590643274854" y="172.51461988304092" fill="hsl(261, 60%, 38%)" stroke="none"></rect><rect width="10.526315789473685" height="10.526315789473685" x="661.4035087719299" y="172.51461988304092" fill="hsl(261, 60%, 38%)" stroke="none"></rect><rect width="10.526315789473685" height="10.526315789473685" x="705.8479532163743" y="172.51461988304092" fill="hsl(261, 60%, 38%)" stroke="none"></rect><rect width="10.526315789473685" height="10.526315789473685" x="750.2923976608188" y="172.51461988304092" fill="hsl(261, 60%, 38%)" stroke="none"></rect><rect width="10.526315789473685" height="10.526315789473685" x="794.7368421052632" y="172.51461988304092" fill="hsl(261, 60%, 38%)" stroke="none"></rect><rect width="10.526315789473685" height="10.526315789473685" x="-5.2631578947368425" y="216.95906432748538" fill="hsl(261, 60%, 38%)" stroke="none"></rect><rect width="10.526315789473685" height="10.526315789473685" x="39.1812865497076" y="216.95906432748538" fill="hsl(261, 60%, 38%)" stroke="none"></rect><rect width="10.526315789473685" height="10.526315789473685" x="83.62573099415204" y="216.95906432748538" fill="hsl(261, 60%, 38%)" stroke="none"></rect><rect width="10.526315789473685" height="10.526315789473685" x="128.07017543859646" y="216.95906432748538" fill="hsl(261, 60%, 38%)" stroke="none"></rect><rect width="10.526315789473685" height="10.526315789473685" x="172.51461988304092" y="216.95906432748538" fill="hsl(261, 60%, 38%)" stroke="none"></rect><rect width="10.526315789473685" height="10.526315789473685" x="216.95906432748538" y="216.95906432748538" fill="hsl(261, 60%, 38%)" stroke="none"></rect><rect width="10.526315789473685" height="10.526315789473685" x="261.40350877192986" y="216.95906432748538" fill="hsl(261, 60%, 38%)" stroke="none"></rect><rect width="10.526315789473685" height="10.526315789473685" x="305.8479532163743" y="216.95906432748538" fill="hsl(261, 60%, 38%)" stroke="none"></rect><rect width="10.526315789473685" height="10.526315789473685" x="350.2923976608188" y="216.95906432748538" fill="hsl(261, 60%, 38%)" stroke="none"></rect><rect width="10.526315789473685" height="10.526315789473685" x="394.73684210526324" y="216.95906432748538" fill="hsl(261, 60%, 38%)" stroke="none"></rect><rect width="10.526315789473685" height="10.526315789473685" x="439.1812865497077" y="216.95906432748538" fill="hsl(261, 60%, 38%)" stroke="none"></rect><rect width="10.526315789473685" height="10.526315789473685" x="483.62573099415215" y="216.95906432748538" fill="hsl(261, 60%, 38%)" stroke="none"></rect><rect width="10.526315789473685" height="10.526315789473685" x="528.0701754385965" y="216.95906432748538" fill="hsl(261, 60%, 38%)" stroke="none"></rect><rect width="10.526315789473685" height="10.526315789473685" x="572.514619883041" y="216.95906432748538" fill="hsl(261, 60%, 38%)" stroke="none"></rect><rect width="10.526315789473685" height="10.526315789473685" x="616.9590643274854" y="216.95906432748538" fill="hsl(261, 60%, 38%)" stroke="none"></rect><rect width="10.526315789473685" height="10.526315789473685" x="661.4035087719299" y="216.95906432748538" fill="hsl(261, 60%, 38%)" stroke="none"></rect><rect width="10.526315789473685" height="10.526315789473685" x="705.8479532163743" y="216.95906432748538" fill="hsl(261, 60%, 38%)" stroke="none"></rect><rect width="10.526315789473685" height="10.526315789473685" x="750.2923976608188" y="216.95906432748538" fill="hsl(261, 60%, 38%)" stroke="none"></rect><rect width="10.526315789473685" height="10.526315789473685" x="794.7368421052632" y="216.95906432748538" fill="hsl(261, 60%, 38%)" stroke="none"></rect><rect width="10.526315789473685" height="10.526315789473685" x="-5.2631578947368425" y="261.40350877192986" fill="hsl(261, 60%, 38%)" stroke="none"></rect><rect width="10.526315789473685" height="10.526315789473685" x="39.1812865497076" y="261.40350877192986" fill="hsl(261, 60%, 38%)" stroke="none"></rect><rect width="10.526315789473685" height="10.526315789473685" x="83.62573099415204" y="261.40350877192986" fill="hsl(261, 60%, 38%)" stroke="none"></rect><rect width="10.526315789473685" height="10.526315789473685" x="128.07017543859646" y="261.40350877192986" fill="hsl(261, 60%, 38%)" stroke="none"></rect><rect width="10.526315789473685" height="10.526315789473685" x="172.51461988304092" y="261.40350877192986" fill="hsl(261, 60%, 38%)" stroke="none"></rect><rect width="10.526315789473685" height="10.526315789473685" x="216.95906432748538" y="261.40350877192986" fill="hsl(261, 60%, 38%)" stroke="none"></rect><rect width="10.526315789473685" height="10.526315789473685" x="261.40350877192986" y="261.40350877192986" fill="hsl(261, 60%, 38%)" stroke="none"></rect><rect width="10.526315789473685" height="10.526315789473685" x="305.8479532163743" y="261.40350877192986" fill="hsl(261, 60%, 38%)" stroke="none"></rect><rect width="10.526315789473685" height="10.526315789473685" x="350.2923976608188" y="261.40350877192986" fill="hsl(261, 60%, 38%)" stroke="none"></rect><rect width="10.526315789473685" height="10.526315789473685" x="394.73684210526324" y="261.40350877192986" fill="hsl(261, 60%, 38%)" stroke="none"></rect><rect width="10.526315789473685" height="10.526315789473685" x="439.1812865497077" y="261.40350877192986" fill="hsl(261, 60%, 38%)" stroke="none"></rect><rect width="10.526315789473685" height="10.526315789473685" x="483.62573099415215" y="261.40350877192986" fill="hsl(261, 60%, 38%)" stroke="none"></rect><rect width="10.526315789473685" height="10.526315789473685" x="528.0701754385965" y="261.40350877192986" fill="hsl(261, 60%, 38%)" stroke="none"></rect><rect width="10.526315789473685" height="10.526315789473685" x="572.514619883041" y="261.40350877192986" fill="hsl(261, 60%, 38%)" stroke="none"></rect><rect width="10.526315789473685" height="10.526315789473685" x="616.9590643274854" y="261.40350877192986" fill="hsl(261, 60%, 38%)" stroke="none"></rect><rect width="10.526315789473685" height="10.526315789473685" x="661.4035087719299" y="261.40350877192986" fill="hsl(261, 60%, 38%)" stroke="none"></rect><rect width="10.526315789473685" height="10.526315789473685" x="705.8479532163743" y="261.40350877192986" fill="hsl(261, 60%, 38%)" stroke="none"></rect><rect width="10.526315789473685" height="10.526315789473685" x="750.2923976608188" y="261.40350877192986" fill="hsl(261, 60%, 38%)" stroke="none"></rect><rect width="10.526315789473685" height="10.526315789473685" x="794.7368421052632" y="261.40350877192986" fill="hsl(261, 60%, 38%)" stroke="none"></rect><rect width="10.526315789473685" height="10.526315789473685" x="-5.2631578947368425" y="305.8479532163743" fill="hsl(261, 60%, 38%)" stroke="none"></rect><rect width="10.526315789473685" height="10.526315789473685" x="39.1812865497076" y="305.8479532163743" fill="hsl(261, 60%, 38%)" stroke="none"></rect><rect width="10.526315789473685" height="10.526315789473685" x="83.62573099415204" y="305.8479532163743" fill="hsl(261, 60%, 38%)" stroke="none"></rect><rect width="10.526315789473685" height="10.526315789473685" x="128.07017543859646" y="305.8479532163743" fill="hsl(261, 60%, 38%)" stroke="none"></rect><rect width="10.526315789473685" height="10.526315789473685" x="172.51461988304092" y="305.8479532163743" fill="hsl(261, 60%, 38%)" stroke="none"></rect><rect width="10.526315789473685" height="10.526315789473685" x="216.95906432748538" y="305.8479532163743" fill="hsl(261, 60%, 38%)" stroke="none"></rect><rect width="10.526315789473685" height="10.526315789473685" x="261.40350877192986" y="305.8479532163743" fill="hsl(261, 60%, 38%)" stroke="none"></rect><rect width="10.526315789473685" height="10.526315789473685" x="305.8479532163743" y="305.8479532163743" fill="hsl(261, 60%, 38%)" stroke="none"></rect><rect width="10.526315789473685" height="10.526315789473685" x="350.2923976608188" y="305.8479532163743" fill="hsl(261, 60%, 38%)" stroke="none"></rect><rect width="10.526315789473685" height="10.526315789473685" x="394.73684210526324" y="305.8479532163743" fill="hsl(261, 60%, 38%)" stroke="none"></rect><rect width="10.526315789473685" height="10.526315789473685" x="439.1812865497077" y="305.8479532163743" fill="hsl(261, 60%, 38%)" stroke="none"></rect><rect width="10.526315789473685" height="10.526315789473685" x="483.62573099415215" y="305.8479532163743" fill="hsl(261, 60%, 38%)" stroke="none"></rect><rect width="10.526315789473685" height="10.526315789473685" x="528.0701754385965" y="305.8479532163743" fill="hsl(261, 60%, 38%)" stroke="none"></rect><rect width="10.526315789473685" height="10.526315789473685" x="572.514619883041" y="305.8479532163743" fill="hsl(261, 60%, 38%)" stroke="none"></rect><rect width="10.526315789473685" height="10.526315789473685" x="616.9590643274854" y="305.8479532163743" fill="hsl(261, 60%, 38%)" stroke="none"></rect><rect width="10.526315789473685" height="10.526315789473685" x="661.4035087719299" y="305.8479532163743" fill="hsl(261, 60%, 38%)" stroke="none"></rect><rect width="10.526315789473685" height="10.526315789473685" x="705.8479532163743" y="305.8479532163743" fill="hsl(261, 60%, 38%)" stroke="none"></rect><rect width="10.526315789473685" height="10.526315789473685" x="750.2923976608188" y="305.8479532163743" fill="hsl(261, 60%, 38%)" stroke="none"></rect><rect width="10.526315789473685" height="10.526315789473685" x="794.7368421052632" y="305.8479532163743" fill="hsl(261, 60%, 38%)" stroke="none"></rect><rect width="10.526315789473685" height="10.526315789473685" x="-5.2631578947368425" y="350.2923976608188" fill="hsl(261, 60%, 38%)" stroke="none"></rect><rect width="10.526315789473685" height="10.526315789473685" x="39.1812865497076" y="350.2923976608188" fill="hsl(261, 60%, 38%)" stroke="none"></rect><rect width="10.526315789473685" height="10.526315789473685" x="83.62573099415204" y="350.2923976608188" fill="hsl(261, 60%, 38%)" stroke="none"></rect><rect width="10.526315789473685" height="10.526315789473685" x="128.07017543859646" y="350.2923976608188" fill="hsl(261, 60%, 38%)" stroke="none"></rect><rect width="10.526315789473685" height="10.526315789473685" x="172.51461988304092" y="350.2923976608188" fill="hsl(261, 60%, 38%)" stroke="none"></rect><rect width="10.526315789473685" height="10.526315789473685" x="216.95906432748538" y="350.2923976608188" fill="hsl(261, 60%, 38%)" stroke="none"></rect><rect width="10.526315789473685" height="10.526315789473685" x="261.40350877192986" y="350.2923976608188" fill="hsl(261, 60%, 38%)" stroke="none"></rect><rect width="10.526315789473685" height="10.526315789473685" x="305.8479532163743" y="350.2923976608188" fill="hsl(261, 60%, 38%)" stroke="none"></rect><rect width="10.526315789473685" height="10.526315789473685" x="350.2923976608188" y="350.2923976608188" fill="hsl(261, 60%, 38%)" stroke="none"></rect><rect width="10.526315789473685" height="10.526315789473685" x="394.73684210526324" y="350.2923976608188" fill="hsl(261, 60%, 38%)" stroke="none"></rect><rect width="10.526315789473685" height="10.526315789473685" x="439.1812865497077" y="350.2923976608188" fill="hsl(261, 60%, 38%)" stroke="none"></rect><rect width="10.526315789473685" height="10.526315789473685" x="483.62573099415215" y="350.2923976608188" fill="hsl(261, 60%, 38%)" stroke="none"></rect><rect width="10.526315789473685" height="10.526315789473685" x="528.0701754385965" y="350.2923976608188" fill="hsl(261, 60%, 38%)" stroke="none"></rect><rect width="10.526315789473685" height="10.526315789473685" x="572.514619883041" y="350.2923976608188" fill="hsl(261, 60%, 38%)" stroke="none"></rect><rect width="10.526315789473685" height="10.526315789473685" x="616.9590643274854" y="350.2923976608188" fill="hsl(261, 60%, 38%)" stroke="none"></rect><rect width="10.526315789473685" height="10.526315789473685" x="661.4035087719299" y="350.2923976608188" fill="hsl(261, 60%, 38%)" stroke="none"></rect><rect width="10.526315789473685" height="10.526315789473685" x="705.8479532163743" y="350.2923976608188" fill="hsl(261, 60%, 38%)" stroke="none"></rect><rect width="10.526315789473685" height="10.526315789473685" x="750.2923976608188" y="350.2923976608188" fill="hsl(261, 60%, 38%)" stroke="none"></rect><rect width="10.526315789473685" height="10.526315789473685" x="794.7368421052632" y="350.2923976608188" fill="hsl(261, 60%, 38%)" stroke="none"></rect><rect width="10.526315789473685" height="10.526315789473685" x="-5.2631578947368425" y="394.73684210526324" fill="hsl(261, 60%, 38%)" stroke="none"></rect><rect width="10.526315789473685" height="10.526315789473685" x="39.1812865497076" y="394.73684210526324" fill="hsl(261, 60%, 38%)" stroke="none"></rect><rect width="10.526315789473685" height="10.526315789473685" x="83.62573099415204" y="394.73684210526324" fill="hsl(261, 60%, 38%)" stroke="none"></rect><rect width="10.526315789473685" height="10.526315789473685" x="128.07017543859646" y="394.73684210526324" fill="hsl(261, 60%, 38%)" stroke="none"></rect><rect width="10.526315789473685" height="10.526315789473685" x="172.51461988304092" y="394.73684210526324" fill="hsl(261, 60%, 38%)" stroke="none"></rect><rect width="10.526315789473685" height="10.526315789473685" x="216.95906432748538" y="394.73684210526324" fill="hsl(261, 60%, 38%)" stroke="none"></rect><rect width="10.526315789473685" height="10.526315789473685" x="261.40350877192986" y="394.73684210526324" fill="hsl(261, 60%, 38%)" stroke="none"></rect><rect width="10.526315789473685" height="10.526315789473685" x="305.8479532163743" y="394.73684210526324" fill="hsl(261, 60%, 38%)" stroke="none"></rect><rect width="10.526315789473685" height="10.526315789473685" x="350.2923976608188" y="394.73684210526324" fill="hsl(261, 60%, 38%)" stroke="none"></rect><rect width="10.526315789473685" height="10.526315789473685" x="394.73684210526324" y="394.73684210526324" fill="hsl(261, 60%, 38%)" stroke="none"></rect><rect width="10.526315789473685" height="10.526315789473685" x="439.1812865497077" y="394.73684210526324" fill="hsl(261, 60%, 38%)" stroke="none"></rect><rect width="10.526315789473685" height="10.526315789473685" x="483.62573099415215" y="394.73684210526324" fill="hsl(261, 60%, 38%)" stroke="none"></rect><rect width="10.526315789473685" height="10.526315789473685" x="528.0701754385965" y="394.73684210526324" fill="hsl(261, 60%, 38%)" stroke="none"></rect><rect width="10.526315789473685" height="10.526315789473685" x="572.514619883041" y="394.73684210526324" fill="hsl(261, 60%, 38%)" stroke="none"></rect><rect width="10.526315789473685" height="10.526315789473685" x="616.9590643274854" y="394.73684210526324" fill="hsl(261, 60%, 38%)" stroke="none"></rect><rect width="10.526315789473685" height="10.526315789473685" x="661.4035087719299" y="394.73684210526324" fill="hsl(261, 60%, 38%)" stroke="none"></rect><rect width="10.526315789473685" height="10.526315789473685" x="705.8479532163743" y="394.73684210526324" fill="hsl(261, 60%, 38%)" stroke="none"></rect><rect width="10.526315789473685" height="10.526315789473685" x="750.2923976608188" y="394.73684210526324" fill="hsl(261, 60%, 38%)" stroke="none"></rect><rect width="10.526315789473685" height="10.526315789473685" x="794.7368421052632" y="394.73684210526324" fill="hsl(261, 60%, 38%)" stroke="none"></rect><rect width="10.526315789473685" height="10.526315789473685" x="-5.2631578947368425" y="439.1812865497077" fill="hsl(261, 60%, 38%)" stroke="none"></rect><rect width="10.526315789473685" height="10.526315789473685" x="39.1812865497076" y="439.1812865497077" fill="hsl(261, 60%, 38%)" stroke="none"></rect><rect width="10.526315789473685" height="10.526315789473685" x="83.62573099415204" y="439.1812865497077" fill="hsl(261, 60%, 38%)" stroke="none"></rect><rect width="10.526315789473685" height="10.526315789473685" x="128.07017543859646" y="439.1812865497077" fill="hsl(261, 60%, 38%)" stroke="none"></rect><rect width="10.526315789473685" height="10.526315789473685" x="172.51461988304092" y="439.1812865497077" fill="hsl(261, 60%, 38%)" stroke="none"></rect><rect width="10.526315789473685" height="10.526315789473685" x="216.95906432748538" y="439.1812865497077" fill="hsl(261, 60%, 38%)" stroke="none"></rect><rect width="10.526315789473685" height="10.526315789473685" x="261.40350877192986" y="439.1812865497077" fill="hsl(261, 60%, 38%)" stroke="none"></rect><rect width="10.526315789473685" height="10.526315789473685" x="305.8479532163743" y="439.1812865497077" fill="hsl(261, 60%, 38%)" stroke="none"></rect><rect width="10.526315789473685" height="10.526315789473685" x="350.2923976608188" y="439.1812865497077" fill="hsl(261, 60%, 38%)" stroke="none"></rect><rect width="10.526315789473685" height="10.526315789473685" x="394.73684210526324" y="439.1812865497077" fill="hsl(261, 60%, 38%)" stroke="none"></rect><rect width="10.526315789473685" height="10.526315789473685" x="439.1812865497077" y="439.1812865497077" fill="hsl(261, 60%, 38%)" stroke="none"></rect><rect width="10.526315789473685" height="10.526315789473685" x="483.62573099415215" y="439.1812865497077" fill="hsl(261, 60%, 38%)" stroke="none"></rect><rect width="10.526315789473685" height="10.526315789473685" x="528.0701754385965" y="439.1812865497077" fill="hsl(261, 60%, 38%)" stroke="none"></rect><rect width="10.526315789473685" height="10.526315789473685" x="572.514619883041" y="439.1812865497077" fill="hsl(261, 60%, 38%)" stroke="none"></rect><rect width="10.526315789473685" height="10.526315789473685" x="616.9590643274854" y="439.1812865497077" fill="hsl(261, 60%, 38%)" stroke="none"></rect><rect width="10.526315789473685" height="10.526315789473685" x="661.4035087719299" y="439.1812865497077" fill="hsl(261, 60%, 38%)" stroke="none"></rect><rect width="10.526315789473685" height="10.526315789473685" x="705.8479532163743" y="439.1812865497077" fill="hsl(261, 60%, 38%)" stroke="none"></rect><rect width="10.526315789473685" height="10.526315789473685" x="750.2923976608188" y="439.1812865497077" fill="hsl(261, 60%, 38%)" stroke="none"></rect><rect width="10.526315789473685" height="10.526315789473685" x="794.7368421052632" y="439.1812865497077" fill="hsl(261, 60%, 38%)" stroke="none"></rect><rect width="10.526315789473685" height="10.526315789473685" x="-5.2631578947368425" y="483.62573099415215" fill="hsl(261, 60%, 38%)" stroke="none"></rect><rect width="10.526315789473685" height="10.526315789473685" x="39.1812865497076" y="483.62573099415215" fill="hsl(261, 60%, 38%)" stroke="none"></rect><rect width="10.526315789473685" height="10.526315789473685" x="83.62573099415204" y="483.62573099415215" fill="hsl(261, 60%, 38%)" stroke="none"></rect><rect width="10.526315789473685" height="10.526315789473685" x="128.07017543859646" y="483.62573099415215" fill="hsl(261, 60%, 38%)" stroke="none"></rect><rect width="10.526315789473685" height="10.526315789473685" x="172.51461988304092" y="483.62573099415215" fill="hsl(261, 60%, 38%)" stroke="none"></rect><rect width="10.526315789473685" height="10.526315789473685" x="216.95906432748538" y="483.62573099415215" fill="hsl(261, 60%, 38%)" stroke="none"></rect><rect width="10.526315789473685" height="10.526315789473685" x="261.40350877192986" y="483.62573099415215" fill="hsl(261, 60%, 38%)" stroke="none"></rect><rect width="10.526315789473685" height="10.526315789473685" x="305.8479532163743" y="483.62573099415215" fill="hsl(261, 60%, 38%)" stroke="none"></rect><rect width="10.526315789473685" height="10.526315789473685" x="350.2923976608188" y="483.62573099415215" fill="hsl(261, 60%, 38%)" stroke="none"></rect><rect width="10.526315789473685" height="10.526315789473685" x="394.73684210526324" y="483.62573099415215" fill="hsl(261, 60%, 38%)" stroke="none"></rect><rect width="10.526315789473685" height="10.526315789473685" x="439.1812865497077" y="483.62573099415215" fill="hsl(261, 60%, 38%)" stroke="none"></rect><rect width="10.526315789473685" height="10.526315789473685" x="483.62573099415215" y="483.62573099415215" fill="hsl(261, 60%, 38%)" stroke="none"></rect><rect width="10.526315789473685" height="10.526315789473685" x="528.0701754385965" y="483.62573099415215" fill="hsl(261, 60%, 38%)" stroke="none"></rect><rect width="10.526315789473685" height="10.526315789473685" x="572.514619883041" y="483.62573099415215" fill="hsl(261, 60%, 38%)" stroke="none"></rect><rect width="10.526315789473685" height="10.526315789473685" x="616.9590643274854" y="483.62573099415215" fill="hsl(261, 60%, 38%)" stroke="none"></rect><rect width="10.526315789473685" height="10.526315789473685" x="661.4035087719299" y="483.62573099415215" fill="hsl(261, 60%, 38%)" stroke="none"></rect><rect width="10.526315789473685" height="10.526315789473685" x="705.8479532163743" y="483.62573099415215" fill="hsl(261, 60%, 38%)" stroke="none"></rect><rect width="10.526315789473685" height="10.526315789473685" x="750.2923976608188" y="483.62573099415215" fill="hsl(261, 60%, 38%)" stroke="none"></rect><rect width="10.526315789473685" height="10.526315789473685" x="794.7368421052632" y="483.62573099415215" fill="hsl(261, 60%, 38%)" stroke="none"></rect><rect width="10.526315789473685" height="10.526315789473685" x="-5.2631578947368425" y="528.0701754385965" fill="hsl(261, 60%, 38%)" stroke="none"></rect><rect width="10.526315789473685" height="10.526315789473685" x="39.1812865497076" y="528.0701754385965" fill="hsl(261, 60%, 38%)" stroke="none"></rect><rect width="10.526315789473685" height="10.526315789473685" x="83.62573099415204" y="528.0701754385965" fill="hsl(261, 60%, 38%)" stroke="none"></rect><rect width="10.526315789473685" height="10.526315789473685" x="128.07017543859646" y="528.0701754385965" fill="hsl(261, 60%, 38%)" stroke="none"></rect><rect width="10.526315789473685" height="10.526315789473685" x="172.51461988304092" y="528.0701754385965" fill="hsl(261, 60%, 38%)" stroke="none"></rect><rect width="10.526315789473685" height="10.526315789473685" x="216.95906432748538" y="528.0701754385965" fill="hsl(261, 60%, 38%)" stroke="none"></rect><rect width="10.526315789473685" height="10.526315789473685" x="261.40350877192986" y="528.0701754385965" fill="hsl(261, 60%, 38%)" stroke="none"></rect><rect width="10.526315789473685" height="10.526315789473685" x="305.8479532163743" y="528.0701754385965" fill="hsl(261, 60%, 38%)" stroke="none"></rect><rect width="10.526315789473685" height="10.526315789473685" x="350.2923976608188" y="528.0701754385965" fill="hsl(261, 60%, 38%)" stroke="none"></rect><rect width="10.526315789473685" height="10.526315789473685" x="394.73684210526324" y="528.0701754385965" fill="hsl(261, 60%, 38%)" stroke="none"></rect><rect width="10.526315789473685" height="10.526315789473685" x="439.1812865497077" y="528.0701754385965" fill="hsl(261, 60%, 38%)" stroke="none"></rect><rect width="10.526315789473685" height="10.526315789473685" x="483.62573099415215" y="528.0701754385965" fill="hsl(261, 60%, 38%)" stroke="none"></rect><rect width="10.526315789473685" height="10.526315789473685" x="528.0701754385965" y="528.0701754385965" fill="hsl(261, 60%, 38%)" stroke="none"></rect><rect width="10.526315789473685" height="10.526315789473685" x="572.514619883041" y="528.0701754385965" fill="hsl(261, 60%, 38%)" stroke="none"></rect><rect width="10.526315789473685" height="10.526315789473685" x="616.9590643274854" y="528.0701754385965" fill="hsl(261, 60%, 38%)" stroke="none"></rect><rect width="10.526315789473685" height="10.526315789473685" x="661.4035087719299" y="528.0701754385965" fill="hsl(261, 60%, 38%)" stroke="none"></rect><rect width="10.526315789473685" height="10.526315789473685" x="705.8479532163743" y="528.0701754385965" fill="hsl(261, 60%, 38%)" stroke="none"></rect><rect width="10.526315789473685" height="10.526315789473685" x="750.2923976608188" y="528.0701754385965" fill="hsl(261, 60%, 38%)" stroke="none"></rect><rect width="10.526315789473685" height="10.526315789473685" x="794.7368421052632" y="528.0701754385965" fill="hsl(261, 60%, 38%)" stroke="none"></rect><rect width="10.526315789473685" height="10.526315789473685" x="-5.2631578947368425" y="572.514619883041" fill="hsl(261, 60%, 38%)" stroke="none"></rect><rect width="10.526315789473685" height="10.526315789473685" x="39.1812865497076" y="572.514619883041" fill="hsl(261, 60%, 38%)" stroke="none"></rect><rect width="10.526315789473685" height="10.526315789473685" x="83.62573099415204" y="572.514619883041" fill="hsl(261, 60%, 38%)" stroke="none"></rect><rect width="10.526315789473685" height="10.526315789473685" x="128.07017543859646" y="572.514619883041" fill="hsl(261, 60%, 38%)" stroke="none"></rect><rect width="10.526315789473685" height="10.526315789473685" x="172.51461988304092" y="572.514619883041" fill="hsl(261, 60%, 38%)" stroke="none"></rect><rect width="10.526315789473685" height="10.526315789473685" x="216.95906432748538" y="572.514619883041" fill="hsl(261, 60%, 38%)" stroke="none"></rect><rect width="10.526315789473685" height="10.526315789473685" x="261.40350877192986" y="572.514619883041" fill="hsl(261, 60%, 38%)" stroke="none"></rect><rect width="10.526315789473685" height="10.526315789473685" x="305.8479532163743" y="572.514619883041" fill="hsl(261, 60%, 38%)" stroke="none"></rect><rect width="10.526315789473685" height="10.526315789473685" x="350.2923976608188" y="572.514619883041" fill="hsl(261, 60%, 38%)" stroke="none"></rect><rect width="10.526315789473685" height="10.526315789473685" x="394.73684210526324" y="572.514619883041" fill="hsl(261, 60%, 38%)" stroke="none"></rect><rect width="10.526315789473685" height="10.526315789473685" x="439.1812865497077" y="572.514619883041" fill="hsl(261, 60%, 38%)" stroke="none"></rect><rect width="10.526315789473685" height="10.526315789473685" x="483.62573099415215" y="572.514619883041" fill="hsl(261, 60%, 38%)" stroke="none"></rect><rect width="10.526315789473685" height="10.526315789473685" x="528.0701754385965" y="572.514619883041" fill="hsl(261, 60%, 38%)" stroke="none"></rect><rect width="10.526315789473685" height="10.526315789473685" x="572.514619883041" y="572.514619883041" fill="hsl(261, 60%, 38%)" stroke="none"></rect><rect width="10.526315789473685" height="10.526315789473685" x="616.9590643274854" y="572.514619883041" fill="hsl(261, 60%, 38%)" stroke="none"></rect><rect width="10.526315789473685" height="10.526315789473685" x="661.4035087719299" y="572.514619883041" fill="hsl(261, 60%, 38%)" stroke="none"></rect><rect width="10.526315789473685" height="10.526315789473685" x="705.8479532163743" y="572.514619883041" fill="hsl(261, 60%, 38%)" stroke="none"></rect><rect width="10.526315789473685" height="10.526315789473685" x="750.2923976608188" y="572.514619883041" fill="hsl(261, 60%, 38%)" stroke="none"></rect><rect width="10.526315789473685" height="10.526315789473685" x="794.7368421052632" y="572.514619883041" fill="hsl(261, 60%, 38%)" stroke="none"></rect><rect width="10.526315789473685" height="10.526315789473685" x="-5.2631578947368425" y="616.9590643274854" fill="hsl(261, 60%, 38%)" stroke="none"></rect><rect width="10.526315789473685" height="10.526315789473685" x="39.1812865497076" y="616.9590643274854" fill="hsl(261, 60%, 38%)" stroke="none"></rect><rect width="10.526315789473685" height="10.526315789473685" x="83.62573099415204" y="616.9590643274854" fill="hsl(261, 60%, 38%)" stroke="none"></rect><rect width="10.526315789473685" height="10.526315789473685" x="128.07017543859646" y="616.9590643274854" fill="hsl(261, 60%, 38%)" stroke="none"></rect><rect width="10.526315789473685" height="10.526315789473685" x="172.51461988304092" y="616.9590643274854" fill="hsl(261, 60%, 38%)" stroke="none"></rect><rect width="10.526315789473685" height="10.526315789473685" x="216.95906432748538" y="616.9590643274854" fill="hsl(261, 60%, 38%)" stroke="none"></rect><rect width="10.526315789473685" height="10.526315789473685" x="261.40350877192986" y="616.9590643274854" fill="hsl(261, 60%, 38%)" stroke="none"></rect><rect width="10.526315789473685" height="10.526315789473685" x="305.8479532163743" y="616.9590643274854" fill="hsl(261, 60%, 38%)" stroke="none"></rect><rect width="10.526315789473685" height="10.526315789473685" x="350.2923976608188" y="616.9590643274854" fill="hsl(261, 60%, 38%)" stroke="none"></rect><rect width="10.526315789473685" height="10.526315789473685" x="394.73684210526324" y="616.9590643274854" fill="hsl(261, 60%, 38%)" stroke="none"></rect><rect width="10.526315789473685" height="10.526315789473685" x="439.1812865497077" y="616.9590643274854" fill="hsl(261, 60%, 38%)" stroke="none"></rect><rect width="10.526315789473685" height="10.526315789473685" x="483.62573099415215" y="616.9590643274854" fill="hsl(261, 60%, 38%)" stroke="none"></rect><rect width="10.526315789473685" height="10.526315789473685" x="528.0701754385965" y="616.9590643274854" fill="hsl(261, 60%, 38%)" stroke="none"></rect><rect width="10.526315789473685" height="10.526315789473685" x="572.514619883041" y="616.9590643274854" fill="hsl(261, 60%, 38%)" stroke="none"></rect><rect width="10.526315789473685" height="10.526315789473685" x="616.9590643274854" y="616.9590643274854" fill="hsl(261, 60%, 38%)" stroke="none"></rect><rect width="10.526315789473685" height="10.526315789473685" x="661.4035087719299" y="616.9590643274854" fill="hsl(261, 60%, 38%)" stroke="none"></rect><rect width="10.526315789473685" height="10.526315789473685" x="705.8479532163743" y="616.9590643274854" fill="hsl(261, 60%, 38%)" stroke="none"></rect><rect width="10.526315789473685" height="10.526315789473685" x="750.2923976608188" y="616.9590643274854" fill="hsl(261, 60%, 38%)" stroke="none"></rect><rect width="10.526315789473685" height="10.526315789473685" x="794.7368421052632" y="616.9590643274854" fill="hsl(261, 60%, 38%)" stroke="none"></rect><rect width="10.526315789473685" height="10.526315789473685" x="-5.2631578947368425" y="661.4035087719299" fill="hsl(261, 60%, 38%)" stroke="none"></rect><rect width="10.526315789473685" height="10.526315789473685" x="39.1812865497076" y="661.4035087719299" fill="hsl(261, 60%, 38%)" stroke="none"></rect><rect width="10.526315789473685" height="10.526315789473685" x="83.62573099415204" y="661.4035087719299" fill="hsl(261, 60%, 38%)" stroke="none"></rect><rect width="10.526315789473685" height="10.526315789473685" x="128.07017543859646" y="661.4035087719299" fill="hsl(261, 60%, 38%)" stroke="none"></rect><rect width="10.526315789473685" height="10.526315789473685" x="172.51461988304092" y="661.4035087719299" fill="hsl(261, 60%, 38%)" stroke="none"></rect><rect width="10.526315789473685" height="10.526315789473685" x="216.95906432748538" y="661.4035087719299" fill="hsl(261, 60%, 38%)" stroke="none"></rect><rect width="10.526315789473685" height="10.526315789473685" x="261.40350877192986" y="661.4035087719299" fill="hsl(261, 60%, 38%)" stroke="none"></rect><rect width="10.526315789473685" height="10.526315789473685" x="305.8479532163743" y="661.4035087719299" fill="hsl(261, 60%, 38%)" stroke="none"></rect><rect width="10.526315789473685" height="10.526315789473685" x="350.2923976608188" y="661.4035087719299" fill="hsl(261, 60%, 38%)" stroke="none"></rect><rect width="10.526315789473685" height="10.526315789473685" x="394.73684210526324" y="661.4035087719299" fill="hsl(261, 60%, 38%)" stroke="none"></rect><rect width="10.526315789473685" height="10.526315789473685" x="439.1812865497077" y="661.4035087719299" fill="hsl(261, 60%, 38%)" stroke="none"></rect><rect width="10.526315789473685" height="10.526315789473685" x="483.62573099415215" y="661.4035087719299" fill="hsl(261, 60%, 38%)" stroke="none"></rect><rect width="10.526315789473685" height="10.526315789473685" x="528.0701754385965" y="661.4035087719299" fill="hsl(261, 60%, 38%)" stroke="none"></rect><rect width="10.526315789473685" height="10.526315789473685" x="572.514619883041" y="661.4035087719299" fill="hsl(261, 60%, 38%)" stroke="none"></rect><rect width="10.526315789473685" height="10.526315789473685" x="616.9590643274854" y="661.4035087719299" fill="hsl(261, 60%, 38%)" stroke="none"></rect><rect width="10.526315789473685" height="10.526315789473685" x="661.4035087719299" y="661.4035087719299" fill="hsl(261, 60%, 38%)" stroke="none"></rect><rect width="10.526315789473685" height="10.526315789473685" x="705.8479532163743" y="661.4035087719299" fill="hsl(261, 60%, 38%)" stroke="none"></rect><rect width="10.526315789473685" height="10.526315789473685" x="750.2923976608188" y="661.4035087719299" fill="hsl(261, 60%, 38%)" stroke="none"></rect><rect width="10.526315789473685" height="10.526315789473685" x="794.7368421052632" y="661.4035087719299" fill="hsl(261, 60%, 38%)" stroke="none"></rect><rect width="10.526315789473685" height="10.526315789473685" x="-5.2631578947368425" y="705.8479532163743" fill="hsl(261, 60%, 38%)" stroke="none"></rect><rect width="10.526315789473685" height="10.526315789473685" x="39.1812865497076" y="705.8479532163743" fill="hsl(261, 60%, 38%)" stroke="none"></rect><rect width="10.526315789473685" height="10.526315789473685" x="83.62573099415204" y="705.8479532163743" fill="hsl(261, 60%, 38%)" stroke="none"></rect><rect width="10.526315789473685" height="10.526315789473685" x="128.07017543859646" y="705.8479532163743" fill="hsl(261, 60%, 38%)" stroke="none"></rect><rect width="10.526315789473685" height="10.526315789473685" x="172.51461988304092" y="705.8479532163743" fill="hsl(261, 60%, 38%)" stroke="none"></rect><rect width="10.526315789473685" height="10.526315789473685" x="216.95906432748538" y="705.8479532163743" fill="hsl(261, 60%, 38%)" stroke="none"></rect><rect width="10.526315789473685" height="10.526315789473685" x="261.40350877192986" y="705.8479532163743" fill="hsl(261, 60%, 38%)" stroke="none"></rect><rect width="10.526315789473685" height="10.526315789473685" x="305.8479532163743" y="705.8479532163743" fill="hsl(261, 60%, 38%)" stroke="none"></rect><rect width="10.526315789473685" height="10.526315789473685" x="350.2923976608188" y="705.8479532163743" fill="hsl(261, 60%, 38%)" stroke="none"></rect><rect width="10.526315789473685" height="10.526315789473685" x="394.73684210526324" y="705.8479532163743" fill="hsl(261, 60%, 38%)" stroke="none"></rect><rect width="10.526315789473685" height="10.526315789473685" x="439.1812865497077" y="705.8479532163743" fill="hsl(261, 60%, 38%)" stroke="none"></rect><rect width="10.526315789473685" height="10.526315789473685" x="483.62573099415215" y="705.8479532163743" fill="hsl(261, 60%, 38%)" stroke="none"></rect><rect width="10.526315789473685" height="10.526315789473685" x="528.0701754385965" y="705.8479532163743" fill="hsl(261, 60%, 38%)" stroke="none"></rect><rect width="10.526315789473685" height="10.526315789473685" x="572.514619883041" y="705.8479532163743" fill="hsl(261, 60%, 38%)" stroke="none"></rect><rect width="10.526315789473685" height="10.526315789473685" x="616.9590643274854" y="705.8479532163743" fill="hsl(261, 60%, 38%)" stroke="none"></rect><rect width="10.526315789473685" height="10.526315789473685" x="661.4035087719299" y="705.8479532163743" fill="hsl(261, 60%, 38%)" stroke="none"></rect><rect width="10.526315789473685" height="10.526315789473685" x="705.8479532163743" y="705.8479532163743" fill="hsl(261, 60%, 38%)" stroke="none"></rect><rect width="10.526315789473685" height="10.526315789473685" x="750.2923976608188" y="705.8479532163743" fill="hsl(261, 60%, 38%)" stroke="none"></rect><rect width="10.526315789473685" height="10.526315789473685" x="794.7368421052632" y="705.8479532163743" fill="hsl(261, 60%, 38%)" stroke="none"></rect><rect width="10.526315789473685" height="10.526315789473685" x="-5.2631578947368425" y="750.2923976608188" fill="hsl(261, 60%, 38%)" stroke="none"></rect><rect width="10.526315789473685" height="10.526315789473685" x="39.1812865497076" y="750.2923976608188" fill="hsl(261, 60%, 38%)" stroke="none"></rect><rect width="10.526315789473685" height="10.526315789473685" x="83.62573099415204" y="750.2923976608188" fill="hsl(261, 60%, 38%)" stroke="none"></rect><rect width="10.526315789473685" height="10.526315789473685" x="128.07017543859646" y="750.2923976608188" fill="hsl(261, 60%, 38%)" stroke="none"></rect><rect width="10.526315789473685" height="10.526315789473685" x="172.51461988304092" y="750.2923976608188" fill="hsl(261, 60%, 38%)" stroke="none"></rect><rect width="10.526315789473685" height="10.526315789473685" x="216.95906432748538" y="750.2923976608188" fill="hsl(261, 60%, 38%)" stroke="none"></rect><rect width="10.526315789473685" height="10.526315789473685" x="261.40350877192986" y="750.2923976608188" fill="hsl(261, 60%, 38%)" stroke="none"></rect><rect width="10.526315789473685" height="10.526315789473685" x="305.8479532163743" y="750.2923976608188" fill="hsl(261, 60%, 38%)" stroke="none"></rect><rect width="10.526315789473685" height="10.526315789473685" x="350.2923976608188" y="750.2923976608188" fill="hsl(261, 60%, 38%)" stroke="none"></rect><rect width="10.526315789473685" height="10.526315789473685" x="394.73684210526324" y="750.2923976608188" fill="hsl(261, 60%, 38%)" stroke="none"></rect><rect width="10.526315789473685" height="10.526315789473685" x="439.1812865497077" y="750.2923976608188" fill="hsl(261, 60%, 38%)" stroke="none"></rect><rect width="10.526315789473685" height="10.526315789473685" x="483.62573099415215" y="750.2923976608188" fill="hsl(261, 60%, 38%)" stroke="none"></rect><rect width="10.526315789473685" height="10.526315789473685" x="528.0701754385965" y="750.2923976608188" fill="hsl(261, 60%, 38%)" stroke="none"></rect><rect width="10.526315789473685" height="10.526315789473685" x="572.514619883041" y="750.2923976608188" fill="hsl(261, 60%, 38%)" stroke="none"></rect><rect width="10.526315789473685" height="10.526315789473685" x="616.9590643274854" y="750.2923976608188" fill="hsl(261, 60%, 38%)" stroke="none"></rect><rect width="10.526315789473685" height="10.526315789473685" x="661.4035087719299" y="750.2923976608188" fill="hsl(261, 60%, 38%)" stroke="none"></rect><rect width="10.526315789473685" height="10.526315789473685" x="705.8479532163743" y="750.2923976608188" fill="hsl(261, 60%, 38%)" stroke="none"></rect><rect width="10.526315789473685" height="10.526315789473685" x="750.2923976608188" y="750.2923976608188" fill="hsl(261, 60%, 38%)" stroke="none"></rect><rect width="10.526315789473685" height="10.526315789473685" x="794.7368421052632" y="750.2923976608188" fill="hsl(261, 60%, 38%)" stroke="none"></rect><rect width="10.526315789473685" height="10.526315789473685" x="-5.2631578947368425" y="794.7368421052632" fill="hsl(261, 60%, 38%)" stroke="none"></rect><rect width="10.526315789473685" height="10.526315789473685" x="39.1812865497076" y="794.7368421052632" fill="hsl(261, 60%, 38%)" stroke="none"></rect><rect width="10.526315789473685" height="10.526315789473685" x="83.62573099415204" y="794.7368421052632" fill="hsl(261, 60%, 38%)" stroke="none"></rect><rect width="10.526315789473685" height="10.526315789473685" x="128.07017543859646" y="794.7368421052632" fill="hsl(261, 60%, 38%)" stroke="none"></rect><rect width="10.526315789473685" height="10.526315789473685" x="172.51461988304092" y="794.7368421052632" fill="hsl(261, 60%, 38%)" stroke="none"></rect><rect width="10.526315789473685" height="10.526315789473685" x="216.95906432748538" y="794.7368421052632" fill="hsl(261, 60%, 38%)" stroke="none"></rect><rect width="10.526315789473685" height="10.526315789473685" x="261.40350877192986" y="794.7368421052632" fill="hsl(261, 60%, 38%)" stroke="none"></rect><rect width="10.526315789473685" height="10.526315789473685" x="305.8479532163743" y="794.7368421052632" fill="hsl(261, 60%, 38%)" stroke="none"></rect><rect width="10.526315789473685" height="10.526315789473685" x="350.2923976608188" y="794.7368421052632" fill="hsl(261, 60%, 38%)" stroke="none"></rect><rect width="10.526315789473685" height="10.526315789473685" x="394.73684210526324" y="794.7368421052632" fill="hsl(261, 60%, 38%)" stroke="none"></rect><rect width="10.526315789473685" height="10.526315789473685" x="439.1812865497077" y="794.7368421052632" fill="hsl(261, 60%, 38%)" stroke="none"></rect><rect width="10.526315789473685" height="10.526315789473685" x="483.62573099415215" y="794.7368421052632" fill="hsl(261, 60%, 38%)" stroke="none"></rect><rect width="10.526315789473685" height="10.526315789473685" x="528.0701754385965" y="794.7368421052632" fill="hsl(261, 60%, 38%)" stroke="none"></rect><rect width="10.526315789473685" height="10.526315789473685" x="572.514619883041" y="794.7368421052632" fill="hsl(261, 60%, 38%)" stroke="none"></rect><rect width="10.526315789473685" height="10.526315789473685" x="616.9590643274854" y="794.7368421052632" fill="hsl(261, 60%, 38%)" stroke="none"></rect><rect width="10.526315789473685" height="10.526315789473685" x="661.4035087719299" y="794.7368421052632" fill="hsl(261, 60%, 38%)" stroke="none"></rect><rect width="10.526315789473685" height="10.526315789473685" x="705.8479532163743" y="794.7368421052632" fill="hsl(261, 60%, 38%)" stroke="none"></rect><rect width="10.526315789473685" height="10.526315789473685" x="750.2923976608188" y="794.7368421052632" fill="hsl(261, 60%, 38%)" stroke="none"></rect><rect width="10.526315789473685" height="10.526315789473685" x="794.7368421052632" y="794.7368421052632" fill="hsl(261, 60%, 38%)" stroke="none"></rect></g></svg>